<?xml version="1.0" standalone="no"?>
<!DOCTYPE svg PUBLIC "-//W3C//DTD SVG 20010904//EN"
 "http://www.w3.org/TR/2001/REC-SVG-20010904/DTD/svg10.dtd">
<svg version="1.0" xmlns="http://www.w3.org/2000/svg"
 width="512.000000pt" height="512.000000pt" viewBox="0 0 512.000000 512.000000"
 preserveAspectRatio="xMidYMid meet">
<metadata>
Created by potrace 1.16, written by Peter Selinger 2001-2019
</metadata>
<g transform="translate(0.000000,512.000000) scale(0.100000,-0.100000)"
fill="#000000" stroke="none">
<path d="M1953 3756 c-58 -19 -99 -50 -128 -100 l-25 -43 0 -759 c0 -484 -4
-772 -10 -796 -13 -45 -66 -94 -119 -108 -35 -9 -41 -15 -47 -46 -9 -47 2
-138 21 -175 9 -16 29 -39 45 -51 l30 -22 0 -106 c0 -59 3 -109 6 -113 9 -9
112 30 168 64 28 17 80 53 116 80 l65 48 230 5 c240 4 353 18 481 57 262 81
457 284 505 528 10 51 10 104 0 261 -7 109 -18 219 -25 246 -39 148 -144 280
-269 339 -26 13 -48 26 -49 31 0 4 78 66 173 139 l174 131 3 202 2 202 -652
-1 c-507 0 -662 -3 -695 -13z m1082 -69 l100 -2 -129 -84 c-200 -130 -160
-121 -527 -121 l-316 0 -6 -786 -7 -787 -27 -36 c-45 -59 -257 -293 -297 -328
-44 -39 -71 -44 -60 -10 12 39 54 118 110 203 62 97 87 144 81 151 -3 2 -58
-27 -122 -66 -65 -39 -123 -71 -130 -71 -14 0 -25 31 -25 75 0 27 9 36 65 73
42 28 74 58 90 86 l25 43 0 779 c0 755 1 780 20 811 24 40 61 65 107 72 32 5
811 4 1048 -2z m10 -346 c-11 -19 -200 -145 -234 -157 -25 -9 -105 -13 -257
-14 -209 0 -223 1 -248 21 -23 18 -26 27 -26 83 0 34 3 66 7 69 10 11 765 8
758 -2z m-730 -250 c48 -25 58 -26 280 -32 201 -5 237 -8 282 -26 83 -33 138
-69 182 -119 46 -53 58 -86 67 -194 l6 -75 -28 35 c-15 19 -51 58 -79 86 -79
78 -105 84 -380 84 l-232 0 -6 -82 c-4 -46 -7 -186 -7 -311 0 -190 -3 -235
-16 -263 -18 -37 -90 -95 -141 -112 -32 -10 -32 -10 -37 21 -8 50 -18 1115
-11 1126 3 6 20 -17 38 -51 27 -51 40 -66 82 -87z m681 -391 c130 -63 232
-273 204 -420 -26 -138 -150 -276 -324 -360 -110 -53 -376 -150 -495 -181
-146 -37 -221 -20 -221 51 0 66 70 145 137 155 243 36 348 75 447 166 81 74
119 157 120 257 0 63 -4 85 -23 118 -37 65 -68 78 -198 82 l-113 4 0 74 0 74
212 0 c193 0 215 -2 254 -20z m-211 -295 c15 -14 25 -35 25 -52 -1 -40 -32
-103 -70 -141 -30 -31 -136 -90 -187 -106 l-23 -7 0 165 0 166 115 0 c110 0
117 -1 140 -25z"/>
<path d="M2528 1293 c17 -2 47 -2 65 0 17 2 3 4 -33 4 -36 0 -50 -2 -32 -4z"/>
</g>
</svg>