<?xml version="1.0" standalone="no"?>
<!DOCTYPE svg PUBLIC "-//W3C//DTD SVG 20010904//EN"
 "http://www.w3.org/TR/2001/REC-SVG-20010904/DTD/svg10.dtd">
<svg version="1.0" xmlns="http://www.w3.org/2000/svg"
 width="47.000000pt" height="49.000000pt" viewBox="0 0 47.000000 49.000000"
 preserveAspectRatio="xMidYMid meet">
<metadata>
Created by potrace 1.10, written by Peter Selinger 2001-2011
</metadata>
<g transform="translate(0.000000,49.000000) scale(0.100000,-0.100000)"
fill="#ffffff" stroke="none">
<path d="M179 455 c-82 -22 -127 -71 -148 -158 -23 -94 31 -197 126 -243 70
-34 135 -30 196 12 45 32 96 99 97 127 0 9 4 17 8 17 13 0 6 62 -10 101 -23
53 -75 107 -129 135 -54 27 -73 28 -140 9z m130 -45 c46 -23 94 -78 107 -123
25 -81 -47 -197 -131 -213 -119 -22 -224 61 -225 179 -1 128 137 215 249 157z"/>
<path d="M175 390 c-24 -9 -56 -44 -80 -86 -28 -49 -14 -115 34 -163 21 -21
50 -40 65 -43 26 -5 26 -4 26 51 0 31 3 66 6 79 9 31 -10 28 -25 -5 -26 -54
-28 -58 -42 -58 -30 0 -20 36 20 73 39 37 41 41 41 100 0 65 -4 69 -45 52z
m-3 -86 c-2 -12 -14 -32 -27 -44 l-22 -21 -5 25 c-3 14 -1 23 3 20 5 -3 14 6
20 19 14 30 37 31 31 1z"/>
<path d="M257 393 c-4 -3 -7 -29 -7 -56 0 -38 6 -58 26 -84 14 -18 32 -33 40
-33 18 0 18 -34 -1 -50 -19 -16 -35 -5 -35 24 0 13 -7 30 -17 37 -15 13 -16 9
-10 -55 4 -38 9 -71 11 -73 9 -9 89 42 108 68 45 60 14 165 -61 207 -43 24
-45 25 -54 15z m65 -75 c23 -19 40 -75 22 -75 -7 0 -12 5 -11 11 1 6 -3 10 -9
9 -6 -1 -16 14 -22 33 -11 36 -6 42 20 22z"/>
</g>
</svg>
