<svg xmlns="http://www.w3.org/2000/svg" viewBox="0 0 1600 900" width="1600" height="900">
  <defs>
    <linearGradient id="grad" x1="0" y1="0" x2="0" y2="1">
      <stop offset="0%" stop-color="#e8f7ff" />
      <stop offset="100%" stop-color="#d8eef9" />
    </linearGradient>
  </defs>
  <rect width="1600" height="900" fill="url(#grad)"/>
  <path d="M0,160 C200,120 400,80 600,110 C800,140 1000,230 1200,210 C1400,190 1500,130 1600,120 L1600,0 L0,0 Z" fill="#cfe7f5" opacity="0.6"/>
  <path d="M0,260 C250,220 500,180 750,210 C1000,240 1200,320 1400,300 C1500,290 1550,260 1600,250 L1600,100 L0,100 Z" fill="#bfe0f2" opacity="0.5"/>
  <path d="M0,360 C300,330 600,300 900,330 C1200,360 1400,420 1600,400 L1600,200 L0,200 Z" fill="#b0daf0" opacity="0.45"/>
  <path d="M0,520 C300,500 600,480 900,510 C1200,540 1400,600 1600,580 L1600,380 L0,380 Z" fill="#a1d3ed" opacity="0.35"/>
  <path d="M0,700 C350,680 700,660 1050,690 C1300,710 1450,750 1600,740 L1600,520 L0,520 Z" fill="#93cdea" opacity="0.3"/>
</svg>